<svg width="148" height="148" viewBox="0 0 148 148" fill="none" xmlns="http://www.w3.org/2000/svg">
<g clip-path="url(#clip0_2111_1795)">
<circle opacity="0.3" cx="73.998" cy="74.0059" r="71" stroke="#F89828" stroke-width="6"/>
<path d="M73.998 142.006C111.553 142.006 141.998 111.561 141.998 74.0059C141.998 36.4505 111.553 6.00586 73.998 6.00586V0.00585938C114.867 0.00585938 147.998 33.1368 147.998 74.0059C147.998 114.875 114.867 148.006 73.998 148.006C33.129 148.006 -0.00195312 114.875 -0.00195312 74.0059C-0.00195312 51.3544 10.1755 31.0799 26.207 17.5059L29.998 22.1581C15.3148 34.6312 5.99805 53.2305 5.99805 74.0059C5.99805 111.561 36.4427 142.006 73.998 142.006Z" fill="#F89828"/>
<path d="M49.371 74.1019C49.8617 74.1019 50.3737 74.0592 50.907 73.9739C51.4404 73.8672 51.835 73.7285 52.091 73.5579V73.2699C52.091 73.1845 52.091 73.0992 52.091 73.0139C52.1124 72.9285 52.123 72.8539 52.123 72.7899C52.1017 72.0219 52.0377 71.3072 51.931 70.6459C51.8244 69.9632 51.643 69.3765 51.387 68.8859C51.131 68.3739 50.779 67.9792 50.331 67.7019C49.9044 67.4032 49.371 67.2539 48.731 67.2539C48.219 67.2539 47.771 67.3605 47.387 67.5739C47.003 67.7872 46.6937 68.0645 46.459 68.4059C46.2244 68.7472 46.043 69.1205 45.915 69.5259C45.8084 69.9312 45.755 70.3259 45.755 70.7099C45.755 71.8619 46.0324 72.7152 46.587 73.2699C47.163 73.8245 48.091 74.1019 49.371 74.1019ZM51.707 77.2059C51.259 77.4192 50.7577 77.5792 50.203 77.6859C49.6697 77.7712 49.211 77.8139 48.827 77.8139C47.4404 77.8139 46.2564 77.6539 45.275 77.3339C44.2937 76.9925 43.483 76.5232 42.843 75.9259C42.2244 75.3072 41.7657 74.5712 41.467 73.7179C41.1684 72.8645 41.019 71.9259 41.019 70.9019C41.019 70.0485 41.1577 69.1739 41.435 68.2779C41.7337 67.3819 42.1924 66.5712 42.811 65.8459C43.4297 65.0992 44.2084 64.4912 45.147 64.0219C46.107 63.5312 47.259 63.2859 48.603 63.2859C51.355 63.2859 53.4244 64.1392 54.811 65.8459C56.219 67.5312 56.923 69.9632 56.923 73.1419C56.923 75.2325 56.6457 77.0779 56.091 78.6779C55.5577 80.2779 54.715 81.6219 53.563 82.7099C52.4324 83.7979 50.9817 84.6299 49.211 85.2059C47.4404 85.7605 45.339 86.0485 42.907 86.0699C42.8857 85.3872 42.8537 84.7259 42.811 84.0859C42.7684 83.4459 42.7257 82.7845 42.683 82.1019C43.899 82.0805 44.9977 81.9952 45.979 81.8459C46.9604 81.6752 47.8244 81.4085 48.571 81.0459C49.3177 80.6619 49.947 80.1605 50.459 79.5419C50.9924 78.9232 51.4084 78.1445 51.707 77.2059ZM75.2705 79.8299C75.2705 80.7899 75.0999 81.6752 74.7585 82.4859C74.4385 83.2752 73.9479 83.9685 73.2865 84.5659C72.6252 85.1632 71.7932 85.6325 70.7905 85.9739C69.8092 86.2939 68.6679 86.4539 67.3665 86.4539C65.8732 86.4539 64.6252 86.2512 63.6225 85.8459C62.6412 85.4192 61.8412 84.8965 61.2225 84.2779C60.6252 83.6592 60.1985 82.9872 59.9425 82.2619C59.6865 81.5152 59.5585 80.8325 59.5585 80.2139C59.5585 79.5739 59.6439 78.9872 59.8145 78.4539C59.9852 77.9205 60.2199 77.4405 60.5185 77.0139C60.8172 76.5659 61.1479 76.1605 61.5105 75.7979C61.8945 75.4352 62.2999 75.0939 62.7265 74.7739C61.8092 74.0272 61.1265 73.2912 60.6785 72.5659C60.2519 71.8405 60.0385 70.9125 60.0385 69.7819C60.0385 68.9285 60.2092 68.1072 60.5505 67.3179C60.9132 66.5285 61.4145 65.8459 62.0545 65.2699C62.6945 64.6725 63.4625 64.2032 64.3585 63.8619C65.2759 63.4992 66.2892 63.3179 67.3985 63.3179C68.6999 63.3179 69.8092 63.5099 70.7265 63.8939C71.6652 64.2565 72.4332 64.7259 73.0305 65.3019C73.6279 65.8779 74.0545 66.5285 74.3105 67.2539C74.5879 67.9579 74.7265 68.6619 74.7265 69.3659C74.7265 70.3899 74.4492 71.3499 73.8945 72.2459C73.3612 73.1205 72.6892 73.8139 71.8785 74.3259C73.0945 75.1152 73.9585 75.9472 74.4705 76.8219C75.0039 77.6752 75.2705 78.6779 75.2705 79.8299ZM64.1985 80.0219C64.1985 80.2779 64.2519 80.5659 64.3585 80.8859C64.4865 81.1845 64.6785 81.4619 64.9345 81.7179C65.1905 81.9739 65.5212 82.1872 65.9265 82.3579C66.3319 82.5285 66.8225 82.6139 67.3985 82.6139C68.5079 82.6139 69.3185 82.3472 69.8305 81.8139C70.3425 81.2805 70.5985 80.6832 70.5985 80.0219C70.5985 79.5312 70.4812 79.0939 70.2465 78.7099C70.0332 78.3259 69.7345 77.9952 69.3505 77.7179C68.9665 77.4192 68.5079 77.1632 67.9745 76.9499C67.4625 76.7152 66.9079 76.5019 66.3105 76.3099C65.7132 76.7579 65.2119 77.2805 64.8065 77.8779C64.4012 78.4752 64.1985 79.1899 64.1985 80.0219ZM70.1185 69.4939C70.1185 69.2592 70.0652 69.0139 69.9585 68.7579C69.8732 68.4805 69.7132 68.2245 69.4785 67.9899C69.2652 67.7552 68.9879 67.5632 68.6465 67.4139C68.3052 67.2432 67.8892 67.1579 67.3985 67.1579C66.9292 67.1579 66.5239 67.2325 66.1825 67.3819C65.8412 67.5312 65.5532 67.7339 65.3185 67.9899C65.1052 68.2245 64.9452 68.4805 64.8385 68.7579C64.7319 69.0352 64.6785 69.3019 64.6785 69.5579C64.6785 70.2405 64.9239 70.8805 65.4145 71.4779C65.9265 72.0752 66.7905 72.5872 68.0065 73.0139C68.6892 72.5872 69.2119 72.0965 69.5745 71.5419C69.9372 70.9872 70.1185 70.3045 70.1185 69.4939ZM88.946 69.5259C88.946 71.5312 88.434 73.0672 87.41 74.1339C86.386 75.2005 85.01 75.7339 83.282 75.7339C81.554 75.7339 80.178 75.2005 79.154 74.1339C78.13 73.0672 77.618 71.5312 77.618 69.5259C77.618 67.5205 78.13 65.9845 79.154 64.9179C80.178 63.8512 81.554 63.3179 83.282 63.3179C85.01 63.3179 86.386 63.8512 87.41 64.9179C88.434 65.9845 88.946 67.5205 88.946 69.5259ZM85.33 69.5259C85.33 68.4379 85.138 67.6485 84.754 67.1579C84.37 66.6672 83.8794 66.4219 83.282 66.4219C82.6634 66.4219 82.162 66.6672 81.778 67.1579C81.4154 67.6485 81.234 68.4379 81.234 69.5259C81.234 70.6139 81.4154 71.4139 81.778 71.9259C82.162 72.4165 82.6634 72.6619 83.282 72.6619C83.8794 72.6619 84.37 72.4165 84.754 71.9259C85.138 71.4139 85.33 70.6139 85.33 69.5259ZM95.186 63.8299H99.634L87.122 86.0059H82.674L95.186 63.8299ZM104.754 80.3099C104.754 82.3152 104.242 83.8512 103.218 84.9179C102.194 85.9845 100.818 86.5179 99.09 86.5179C97.362 86.5179 95.986 85.9845 94.962 84.9179C93.938 83.8512 93.426 82.3152 93.426 80.3099C93.426 78.3045 93.938 76.7685 94.962 75.7019C95.986 74.6352 97.362 74.1019 99.09 74.1019C100.818 74.1019 102.194 74.6352 103.218 75.7019C104.242 76.7685 104.754 78.3045 104.754 80.3099ZM101.138 80.3099C101.138 79.2219 100.946 78.4325 100.562 77.9419C100.178 77.4512 99.6874 77.2059 99.09 77.2059C98.4714 77.2059 97.97 77.4512 97.586 77.9419C97.2234 78.4325 97.042 79.2219 97.042 80.3099C97.042 81.3979 97.2234 82.1979 97.586 82.7099C97.97 83.2005 98.4714 83.4459 99.09 83.4459C99.6874 83.4459 100.178 83.2005 100.562 82.7099C100.946 82.1979 101.138 81.3979 101.138 80.3099Z" fill="#1E212C"/>
</g>
<defs>
<clipPath id="clip0_2111_1795">
<rect width="148" height="148" fill="white" transform="translate(-0.00195312 0.00585938)"/>
</clipPath>
</defs>
</svg>
