<svg width="148" height="148" viewBox="0 0 148 148" fill="none" xmlns="http://www.w3.org/2000/svg">
<g clip-path="url(#clip0_2111_1783)">
<circle opacity="0.3" cx="73.998" cy="74.0059" r="71" stroke="#5A87FC" stroke-width="6"/>
<path d="M73.998 142.006C111.553 142.006 141.998 111.561 141.998 74.0059C141.998 36.4505 111.553 6.00586 73.998 6.00586V0.00585938C114.867 0.00585938 147.998 33.1368 147.998 74.0059C147.998 114.875 114.867 148.006 73.998 148.006C33.129 148.006 -0.00195312 114.875 -0.00195312 74.0059C-0.00195312 62.1476 2.78727 50.9409 7.74543 41.0059L13.2053 43.5059C8.59413 52.6788 5.99805 63.0392 5.99805 74.0059C5.99805 111.561 36.4427 142.006 73.998 142.006Z" fill="#5A87FC"/>
<path d="M46.371 74.1019C46.8617 74.1019 47.3737 74.0592 47.907 73.9739C48.4404 73.8672 48.835 73.7285 49.091 73.5579V73.2699C49.091 73.1845 49.091 73.0992 49.091 73.0139C49.1124 72.9285 49.123 72.8539 49.123 72.7899C49.1017 72.0219 49.0377 71.3072 48.931 70.6459C48.8244 69.9632 48.643 69.3765 48.387 68.8859C48.131 68.3739 47.779 67.9792 47.331 67.7019C46.9044 67.4032 46.371 67.2539 45.731 67.2539C45.219 67.2539 44.771 67.3605 44.387 67.5739C44.003 67.7872 43.6937 68.0645 43.459 68.4059C43.2244 68.7472 43.043 69.1205 42.915 69.5259C42.8084 69.9312 42.755 70.3259 42.755 70.7099C42.755 71.8619 43.0324 72.7152 43.587 73.2699C44.163 73.8245 45.091 74.1019 46.371 74.1019ZM48.707 77.2059C48.259 77.4192 47.7577 77.5792 47.203 77.6859C46.6697 77.7712 46.211 77.8139 45.827 77.8139C44.4404 77.8139 43.2564 77.6539 42.275 77.3339C41.2937 76.9925 40.483 76.5232 39.843 75.9259C39.2244 75.3072 38.7657 74.5712 38.467 73.7179C38.1684 72.8645 38.019 71.9259 38.019 70.9019C38.019 70.0485 38.1577 69.1739 38.435 68.2779C38.7337 67.3819 39.1924 66.5712 39.811 65.8459C40.4297 65.0992 41.2084 64.4912 42.147 64.0219C43.107 63.5312 44.259 63.2859 45.603 63.2859C48.355 63.2859 50.4244 64.1392 51.811 65.8459C53.219 67.5312 53.923 69.9632 53.923 73.1419C53.923 75.2325 53.6457 77.0779 53.091 78.6779C52.5577 80.2779 51.715 81.6219 50.563 82.7099C49.4324 83.7979 47.9817 84.6299 46.211 85.2059C44.4404 85.7605 42.339 86.0485 39.907 86.0699C39.8857 85.3872 39.8537 84.7259 39.811 84.0859C39.7684 83.4459 39.7257 82.7845 39.683 82.1019C40.899 82.0805 41.9977 81.9952 42.979 81.8459C43.9604 81.6752 44.8244 81.4085 45.571 81.0459C46.3177 80.6619 46.947 80.1605 47.459 79.5419C47.9924 78.9232 48.4084 78.1445 48.707 77.2059ZM65.5185 69.6539C64.6865 70.7419 63.8012 71.9259 62.8625 73.2059C61.9239 74.4859 61.1345 75.7979 60.4945 77.1419H65.5185V69.6539ZM70.1905 63.8299V77.1419H72.5585V81.0459H70.1905V86.0059H65.5185V81.0459H55.9505V77.5579C56.4199 76.6192 57.0065 75.5632 57.7105 74.3899C58.4145 73.1952 59.1932 71.9792 60.0465 70.7419C60.9212 69.4832 61.8385 68.2565 62.7985 67.0619C63.7585 65.8672 64.7185 64.7899 65.6785 63.8299H70.1905ZM85.018 79.4779C85.018 78.8592 84.8794 78.3152 84.602 77.8459C84.3247 77.3552 83.8447 76.9499 83.162 76.6299C82.4794 76.3099 81.562 76.0645 80.41 75.8939C79.258 75.7232 77.8074 75.6379 76.058 75.6379C76.2927 73.6539 76.4847 71.6379 76.634 69.5899C76.7834 67.5419 76.9007 65.6219 76.986 63.8299H88.986V67.8299H80.986C80.9434 68.5979 80.89 69.3445 80.826 70.0699C80.7834 70.7739 80.73 71.3925 80.666 71.9259C83.7807 72.1392 86.074 72.8752 87.546 74.1339C89.0394 75.3712 89.786 77.0992 89.786 79.3179C89.786 80.3419 89.6047 81.2912 89.242 82.1659C88.8794 83.0405 88.3354 83.7979 87.61 84.4379C86.8847 85.0779 85.9674 85.5792 84.858 85.9419C83.77 86.3045 82.49 86.4859 81.018 86.4859C80.442 86.4859 79.834 86.4432 79.194 86.3579C78.5754 86.2939 77.9674 86.1979 77.37 86.0699C76.794 85.9632 76.2714 85.8459 75.802 85.7179C75.3327 85.5899 74.97 85.4619 74.714 85.3339L75.578 81.3979C76.1114 81.6325 76.8154 81.8672 77.69 82.1019C78.5647 82.3152 79.61 82.4219 80.826 82.4219C82.298 82.4219 83.3647 82.1339 84.026 81.5579C84.6874 80.9605 85.018 80.2672 85.018 79.4779ZM107.558 69.6539C107.558 70.4645 107.398 71.2432 107.078 71.9899C106.758 72.7365 106.342 73.4619 105.83 74.1659C105.318 74.8485 104.742 75.5099 104.102 76.1499C103.462 76.7899 102.832 77.3979 102.214 77.9739C101.894 78.2725 101.542 78.6139 101.158 78.9979C100.795 79.3605 100.443 79.7339 100.102 80.1179C99.7602 80.5019 99.4509 80.8645 99.1735 81.2059C98.9175 81.5259 98.7575 81.7925 98.6935 82.0059H108.23V86.0059H93.4455C93.4029 85.7712 93.3815 85.4725 93.3815 85.1099C93.3815 84.7472 93.3815 84.4912 93.3815 84.3419C93.3815 83.3179 93.5415 82.3792 93.8615 81.5259C94.2029 80.6725 94.6402 79.8832 95.1735 79.1579C95.7069 78.4112 96.3042 77.7179 96.9655 77.0779C97.6482 76.4379 98.3202 75.7979 98.9815 75.1579C99.4935 74.6672 99.9735 74.2085 100.422 73.7819C100.87 73.3339 101.264 72.9072 101.606 72.5019C101.947 72.0752 102.214 71.6592 102.406 71.2539C102.598 70.8272 102.694 70.4005 102.694 69.9739C102.694 69.0352 102.427 68.3739 101.894 67.9899C101.36 67.6059 100.699 67.4139 99.9095 67.4139C99.3335 67.4139 98.7895 67.5099 98.2775 67.7019C97.7869 67.8725 97.3282 68.0859 96.9015 68.3419C96.4962 68.5765 96.1442 68.8219 95.8455 69.0779C95.5469 69.3125 95.3229 69.5045 95.1735 69.6539L92.8055 66.3259C93.7442 65.4512 94.8322 64.7365 96.0695 64.1819C97.3282 63.6059 98.6722 63.3179 100.102 63.3179C101.403 63.3179 102.523 63.4672 103.462 63.7659C104.4 64.0645 105.168 64.4912 105.766 65.0459C106.384 65.5792 106.832 66.2405 107.11 67.0299C107.408 67.7979 107.558 68.6725 107.558 69.6539Z" fill="#1E212C"/>
</g>
<defs>
<clipPath id="clip0_2111_1783">
<rect width="148" height="148" fill="white" transform="translate(-0.00195312 0.00585938)"/>
</clipPath>
</defs>
</svg>
