<svg width="148" height="148" viewBox="0 0 148 148" fill="none" xmlns="http://www.w3.org/2000/svg">
<g clip-path="url(#clip0_2111_1789)">
<circle opacity="0.3" cx="73.998" cy="74.0059" r="71" stroke="#F52F6E" stroke-width="6"/>
<path d="M73.998 142.006C111.553 142.006 141.998 111.561 141.998 74.0059C141.998 36.4505 111.553 6.00586 73.998 6.00586V0.00585938C114.867 0.00585938 147.998 33.1368 147.998 74.0059C147.998 114.875 114.867 148.006 73.998 148.006C33.129 148.006 -0.00195312 114.875 -0.00195312 74.0059H5.99805C5.99805 111.561 36.4427 142.006 73.998 142.006Z" fill="#F52F6E"/>
<path d="M71.1825 69.6539C71.1825 70.4645 71.0225 71.2432 70.7025 71.9899C70.3825 72.7365 69.9665 73.4619 69.4545 74.1659C68.9425 74.8485 68.3665 75.5099 67.7265 76.1499C67.0865 76.7899 66.4572 77.3979 65.8385 77.9739C65.5185 78.2725 65.1665 78.6139 64.7825 78.9979C64.4199 79.3605 64.0679 79.7339 63.7265 80.1179C63.3852 80.5019 63.0759 80.8645 62.7985 81.2059C62.5425 81.5259 62.3825 81.7925 62.3185 82.0059H71.8545V86.0059H57.0705C57.0279 85.7712 57.0065 85.4725 57.0065 85.1099C57.0065 84.7472 57.0065 84.4912 57.0065 84.3419C57.0065 83.3179 57.1665 82.3792 57.4865 81.5259C57.8279 80.6725 58.2652 79.8832 58.7985 79.1579C59.3319 78.4112 59.9292 77.7179 60.5905 77.0779C61.2732 76.4379 61.9452 75.7979 62.6065 75.1579C63.1185 74.6672 63.5985 74.2085 64.0465 73.7819C64.4945 73.3339 64.8892 72.9072 65.2305 72.5019C65.5719 72.0752 65.8385 71.6592 66.0305 71.2539C66.2225 70.8272 66.3185 70.4005 66.3185 69.9739C66.3185 69.0352 66.0519 68.3739 65.5185 67.9899C64.9852 67.6059 64.3239 67.4139 63.5345 67.4139C62.9585 67.4139 62.4145 67.5099 61.9025 67.7019C61.4119 67.8725 60.9532 68.0859 60.5265 68.3419C60.1212 68.5765 59.7692 68.8219 59.4705 69.0779C59.1719 69.3125 58.9479 69.5045 58.7985 69.6539L56.4305 66.3259C57.3692 65.4512 58.4572 64.7365 59.6945 64.1819C60.9532 63.6059 62.2972 63.3179 63.7265 63.3179C65.0279 63.3179 66.1479 63.4672 67.0865 63.7659C68.0252 64.0645 68.7932 64.4912 69.3905 65.0459C70.0092 65.5792 70.4572 66.2405 70.7345 67.0299C71.0332 67.7979 71.1825 68.6725 71.1825 69.6539ZM90.586 74.8699C90.586 78.6032 89.8714 81.4725 88.442 83.4779C87.034 85.4619 85.082 86.4539 82.586 86.4539C80.09 86.4539 78.1274 85.4619 76.698 83.4779C75.29 81.4725 74.586 78.6032 74.586 74.8699C74.586 73.0139 74.7674 71.3712 75.13 69.9419C75.514 68.5125 76.058 67.3072 76.762 66.3259C77.466 65.3445 78.3087 64.5979 79.29 64.0859C80.2714 63.5739 81.37 63.3179 82.586 63.3179C85.082 63.3179 87.034 64.3205 88.442 66.3259C89.8714 68.3099 90.586 71.1579 90.586 74.8699ZM85.722 74.8699C85.722 73.7605 85.6687 72.7579 85.562 71.8619C85.4554 70.9445 85.2847 70.1552 85.05 69.4939C84.8154 68.8325 84.4954 68.3205 84.09 67.9579C83.6847 67.5952 83.1834 67.4139 82.586 67.4139C81.9887 67.4139 81.4874 67.5952 81.082 67.9579C80.698 68.3205 80.378 68.8325 80.122 69.4939C79.8874 70.1552 79.7167 70.9445 79.61 71.8619C79.5034 72.7579 79.45 73.7605 79.45 74.8699C79.45 75.9792 79.5034 76.9925 79.61 77.9099C79.7167 78.8272 79.8874 79.6165 80.122 80.2779C80.378 80.9392 80.698 81.4512 81.082 81.8139C81.4874 82.1765 81.9887 82.3579 82.586 82.3579C83.1834 82.3579 83.6847 82.1765 84.09 81.8139C84.4954 81.4512 84.8154 80.9392 85.05 80.2779C85.2847 79.6165 85.4554 78.8272 85.562 77.9099C85.6687 76.9925 85.722 75.9792 85.722 74.8699Z" fill="#1E212C"/>
</g>
<defs>
<clipPath id="clip0_2111_1789">
<rect width="148" height="148" fill="white" transform="translate(-0.00195312 0.00585938)"/>
</clipPath>
</defs>
</svg>
