<svg width="148" height="148" viewBox="0 0 148 148" fill="none" xmlns="http://www.w3.org/2000/svg">
<g clip-path="url(#clip0_2111_1778)">
<circle cx="73.998" cy="74.0059" r="71" stroke="#03CEA4" stroke-width="6"/>
<path d="M33.2693 68.4379C33.888 68.1819 34.528 67.8939 35.1893 67.5739C35.872 67.2325 36.5333 66.8699 37.1733 66.4859C37.8133 66.0805 38.4213 65.6645 38.9973 65.2379C39.5946 64.7899 40.128 64.3205 40.5973 63.8299H43.9253V86.0059H39.1573V70.0379C38.5173 70.4645 37.8026 70.8592 37.0133 71.2219C36.224 71.5632 35.456 71.8619 34.7093 72.1179L33.2693 68.4379ZM66.3048 74.8699C66.3048 78.6032 65.5901 81.4725 64.1608 83.4779C62.7528 85.4619 60.8008 86.4539 58.3048 86.4539C55.8088 86.4539 53.8461 85.4619 52.4168 83.4779C51.0088 81.4725 50.3048 78.6032 50.3048 74.8699C50.3048 73.0139 50.4861 71.3712 50.8488 69.9419C51.2328 68.5125 51.7768 67.3072 52.4808 66.3259C53.1848 65.3445 54.0275 64.5979 55.0088 64.0859C55.9901 63.5739 57.0888 63.3179 58.3048 63.3179C60.8008 63.3179 62.7528 64.3205 64.1608 66.3259C65.5901 68.3099 66.3048 71.1579 66.3048 74.8699ZM61.4408 74.8699C61.4408 73.7605 61.3875 72.7579 61.2808 71.8619C61.1741 70.9445 61.0035 70.1552 60.7688 69.4939C60.5341 68.8325 60.2141 68.3205 59.8088 67.9579C59.4035 67.5952 58.9021 67.4139 58.3048 67.4139C57.7075 67.4139 57.2061 67.5952 56.8008 67.9579C56.4168 68.3205 56.0968 68.8325 55.8408 69.4939C55.6061 70.1552 55.4355 70.9445 55.3288 71.8619C55.2221 72.7579 55.1688 73.7605 55.1688 74.8699C55.1688 75.9792 55.2221 76.9925 55.3288 77.9099C55.4355 78.8272 55.6061 79.6165 55.8408 80.2779C56.0968 80.9392 56.4168 81.4512 56.8008 81.8139C57.2061 82.1765 57.7075 82.3579 58.3048 82.3579C58.9021 82.3579 59.4035 82.1765 59.8088 81.8139C60.2141 81.4512 60.5341 80.9392 60.7688 80.2779C61.0035 79.6165 61.1741 78.8272 61.2808 77.9099C61.3875 76.9925 61.4408 75.9792 61.4408 74.8699ZM84.4923 74.8699C84.4923 78.6032 83.7776 81.4725 82.3483 83.4779C80.9403 85.4619 78.9883 86.4539 76.4923 86.4539C73.9963 86.4539 72.0336 85.4619 70.6043 83.4779C69.1963 81.4725 68.4923 78.6032 68.4923 74.8699C68.4923 73.0139 68.6736 71.3712 69.0363 69.9419C69.4203 68.5125 69.9643 67.3072 70.6683 66.3259C71.3723 65.3445 72.215 64.5979 73.1963 64.0859C74.1776 63.5739 75.2763 63.3179 76.4923 63.3179C78.9883 63.3179 80.9403 64.3205 82.3483 66.3259C83.7776 68.3099 84.4923 71.1579 84.4923 74.8699ZM79.6283 74.8699C79.6283 73.7605 79.575 72.7579 79.4683 71.8619C79.3616 70.9445 79.191 70.1552 78.9563 69.4939C78.7216 68.8325 78.4016 68.3205 77.9963 67.9579C77.591 67.5952 77.0896 67.4139 76.4923 67.4139C75.895 67.4139 75.3936 67.5952 74.9883 67.9579C74.6043 68.3205 74.2843 68.8325 74.0283 69.4939C73.7936 70.1552 73.623 70.9445 73.5163 71.8619C73.4096 72.7579 73.3563 73.7605 73.3563 74.8699C73.3563 75.9792 73.4096 76.9925 73.5163 77.9099C73.623 78.8272 73.7936 79.6165 74.0283 80.2779C74.2843 80.9392 74.6043 81.4512 74.9883 81.8139C75.3936 82.1765 75.895 82.3579 76.4923 82.3579C77.0896 82.3579 77.591 82.1765 77.9963 81.8139C78.4016 81.4512 78.7216 80.9392 78.9563 80.2779C79.191 79.6165 79.3616 78.8272 79.4683 77.9099C79.575 76.9925 79.6283 75.9792 79.6283 74.8699ZM98.0398 69.5259C98.0398 71.5312 97.5278 73.0672 96.5038 74.1339C95.4798 75.2005 94.1038 75.7339 92.3758 75.7339C90.6478 75.7339 89.2718 75.2005 88.2478 74.1339C87.2238 73.0672 86.7118 71.5312 86.7118 69.5259C86.7118 67.5205 87.2238 65.9845 88.2478 64.9179C89.2718 63.8512 90.6478 63.3179 92.3758 63.3179C94.1038 63.3179 95.4798 63.8512 96.5038 64.9179C97.5278 65.9845 98.0398 67.5205 98.0398 69.5259ZM94.4238 69.5259C94.4238 68.4379 94.2318 67.6485 93.8478 67.1579C93.4638 66.6672 92.9731 66.4219 92.3758 66.4219C91.7571 66.4219 91.2558 66.6672 90.8718 67.1579C90.5091 67.6485 90.3278 68.4379 90.3278 69.5259C90.3278 70.6139 90.5091 71.4139 90.8718 71.9259C91.2558 72.4165 91.7571 72.6619 92.3758 72.6619C92.9731 72.6619 93.4638 72.4165 93.8478 71.9259C94.2318 71.4139 94.4238 70.6139 94.4238 69.5259ZM104.28 63.8299H108.728L96.2158 86.0059H91.7678L104.28 63.8299ZM113.848 80.3099C113.848 82.3152 113.336 83.8512 112.312 84.9179C111.288 85.9845 109.912 86.5179 108.184 86.5179C106.456 86.5179 105.08 85.9845 104.056 84.9179C103.032 83.8512 102.52 82.3152 102.52 80.3099C102.52 78.3045 103.032 76.7685 104.056 75.7019C105.08 74.6352 106.456 74.1019 108.184 74.1019C109.912 74.1019 111.288 74.6352 112.312 75.7019C113.336 76.7685 113.848 78.3045 113.848 80.3099ZM110.232 80.3099C110.232 79.2219 110.04 78.4325 109.656 77.9419C109.272 77.4512 108.781 77.2059 108.184 77.2059C107.565 77.2059 107.064 77.4512 106.68 77.9419C106.317 78.4325 106.136 79.2219 106.136 80.3099C106.136 81.3979 106.317 82.1979 106.68 82.7099C107.064 83.2005 107.565 83.4459 108.184 83.4459C108.781 83.4459 109.272 83.2005 109.656 82.7099C110.04 82.1979 110.232 81.3979 110.232 80.3099Z" fill="#1E212C"/>
</g>
<defs>
<clipPath id="clip0_2111_1778">
<rect width="148" height="148" fill="white" transform="translate(-0.00195312 0.00585938)"/>
</clipPath>
</defs>
</svg>
